<?xml version="1.0" standalone="no"?><!DOCTYPE svg PUBLIC "-//W3C//DTD SVG 1.1//EN" "http://www.w3.org/Graphics/SVG/1.1/DTD/svg11.dtd"><svg class="icon" width="200px" height="200.00px" viewBox="0 0 1024 1024" version="1.1" xmlns="http://www.w3.org/2000/svg"><path fill="#333333" d="M789.091258 917.424308l63.943587 0 0-63.943587-63.943587 0 0 63.943587zM192.281921 917.424308l63.943587 0 0-63.943587-63.943587 0 0 63.943587zM320.170667 917.424308l63.943587 0 0-63.943587-63.943587 0 0 63.943587zM566.317702 917.424308l63.945301 0 0-63.943587-63.945301 0 0 63.943587zM789.091258 597.708943l63.943587 0 0-63.94473-63.943587 0 0 63.94473zM789.091258 768.224223l63.943587 0 0-63.943587-63.943587 0 0 63.943587zM192.281921 427.192234l63.943587 0 0-63.943587-63.943587 0 0 63.943587zM320.170667 427.192234l63.943587 0 0-63.943587-63.943587 0 0 63.943587zM192.281921 597.708943l63.943587 0 0-63.94473-63.943587 0 0 63.94473zM320.170667 597.708943l63.943587 0 0-63.94473-63.943587 0 0 63.94473zM192.281921 768.224223l63.943587 0 0-63.943587-63.943587 0 0 63.943587zM320.170667 768.224223l63.943587 0 0-63.943587-63.943587 0 0 63.943587zM566.317702 768.224223l63.945301 0 0-63.943587-63.945301 0 0 63.943587zM916.918449 405.876753l-191.716508 0c-23.641975 0-42.682377 19.067537-42.682377 42.588117l0 127.927163-170.522421 0 0-298.376748c0-23.73195-19.028976-42.655241-42.509568-42.655241l-21.43402 0 0-63.81648c0-23.860485-19.007554-42.755213-42.455297-42.755213l-85.427593 0 0-95.777562c0-17.68935-14.316006-32.11104-31.972508-32.11104-17.779325 0-31.972508 14.375989-31.972508 32.11104l0 95.777562-85.433305 0c-23.414753 0-42.455297 19.140374-42.455297 42.755213l0 63.81648-21.432591 0C83.623525 235.360045 64.393462 254.456145 64.393462 278.015286L64.393462 1024.001674l63.943587 0 0-724.698042 63.944873 0 0-106.571693 191.832332 0 0 106.571693 63.945015 0 0 724.698042 63.943587 0 0-383.666053 171.670672 0 0 383.666053 62.789623 0 0-554.181333 149.199799 0 0 554.175197 63.943587 0 0-575.530667c0-23.526293-19.113238-42.588117-42.688089-42.588117z" /></svg>