<?xml version="1.0" standalone="no"?><!DOCTYPE svg PUBLIC "-//W3C//DTD SVG 1.1//EN" "http://www.w3.org/Graphics/SVG/1.1/DTD/svg11.dtd"><svg class="icon" width="200px" height="196.73px" viewBox="0 0 1041 1024" version="1.1" xmlns="http://www.w3.org/2000/svg"><path fill="#333333" d="M975.529666 125.252493c-2.950401-1.512985-6.079274-2.681891-9.275676-3.566207l-410.842172-113.893529c-1.979261-0.546668-3.907071-1.250906-5.817194-2.004987-19.099628-7.523121-40.082045-7.717671-58.805437-0.551492-2.066085 0.791061-4.157895 1.532279-6.299549 2.09181l-414.152731 107.605235c-3.460089 0.905218-6.846217 2.117536-10.016894 3.762365-57.769983 30.015308-54.780993 49.460623 6.707942 78.790989 1.091729 0.520943 2.209183 0.985611 3.341108 1.426161L493.520921 363.968094c21.480851 9.729089 45.799553 9.910776 66.764285 0.496825l413.424376-158.807158c1.167298-0.451805 2.342635-0.929336 3.479383-1.469573C1037.168131 175.62959 1035.348047 155.909333 975.529666 125.252493L975.529666 125.252493zM520.082572 188.027707c-37.564155 0-68.020014-16.85668-68.020014-37.652587 0-20.7943 30.455859-37.652587 68.020014-37.652587 37.570587 0 68.024838 16.858287 68.024838 37.652587C588.10741 171.171027 557.653159 188.027707 520.082572 188.027707L520.082572 188.027707zM467.75194 396.935411 66.429836 242.84568c-30.754919-11.808037-64.897573 9.483088-66.380009 42.394131C0.019278 286.013186-1.6e-05 286.784953-1.6e-05 287.563152l0 535.77197c0 26.31565 20.028964 47.946031 45.672533 50.489646 4.138601 0.414825 8.190378 1.451887 12.078155 2.940754l374.860139 143.932955c32.100687 12.322548 66.589029-11.373918 66.589029-45.767396L499.199841 442.696376C499.199841 422.403725 486.693998 404.207708 467.75194 396.935411L467.75194 396.935411zM123.100051 713.945176c-24.81392 0-44.937747-22.57258-44.937747-50.414077 0-27.849537 20.123827-50.422117 44.937747-50.422117 24.821959 0 44.939355 22.57258 44.939355 50.422117C168.039405 691.372596 147.92201 713.945176 123.100051 713.945176L123.100051 713.945176zM195.115567 521.813758c0-27.847929 20.115788-50.420509 44.937747-50.420509 24.81392 0 44.937747 22.57258 44.937747 50.420509 0 27.847929-20.123827 50.420509-44.937747 50.420509C215.231355 572.234267 195.115567 549.661687 195.115567 521.813758L195.115567 521.813758zM305.685674 783.458881c-24.81392 0-44.937747-22.57258-44.937747-50.420509 0-27.841498 20.123827-50.420509 44.937747-50.420509 24.821959 0 44.937747 22.579011 44.937747 50.420509C350.623421 760.886301 330.507633 783.458881 305.685674 783.458881L305.685674 783.458881zM1040.113709 285.239811c-1.480828-32.911043-35.623483-54.202168-66.380009-42.3877L573.612659 396.477175c-18.94849 7.272297-31.454333 25.474745-31.454333 45.767396l0 532.234704c0 34.387047 34.488342 58.089944 66.593853 45.760965l373.668724-143.468287c3.881345-1.495299 7.937946-2.532361 12.076547-2.947186 25.645177-2.537184 45.674141-24.173996 45.674141-50.489646L1040.171592 287.569583C1040.171592 286.784953 1040.152297 286.013186 1040.113709 285.239811L1040.113709 285.239811zM746.229624 783.458881c-24.820351 0-44.937747-22.57258-44.937747-50.420509 0-27.841498 20.117396-50.420509 44.937747-50.420509 24.815528 0 44.937747 22.579011 44.937747 50.420509C791.167371 760.886301 771.045152 783.458881 746.229624 783.458881L746.229624 783.458881zM895.584243 589.838596c-24.815528 0-44.937747-22.577403-44.937747-50.420509 0-27.847929 20.122219-50.420509 44.937747-50.420509 24.820351 0 44.937747 22.57258 44.937747 50.420509C940.521989 567.261193 920.404594 589.838596 895.584243 589.838596L895.584243 589.838596zM895.584243 589.838596" /></svg>