<?xml version="1.0" standalone="no"?><!DOCTYPE svg PUBLIC "-//W3C//DTD SVG 1.1//EN" "http://www.w3.org/Graphics/SVG/1.1/DTD/svg11.dtd"><svg class="icon" width="200px" height="200.00px" viewBox="0 0 1024 1024" version="1.1" xmlns="http://www.w3.org/2000/svg"><path fill="#333333" d="M715.285333 469.482667a51.904 51.904 0 0 1 52.096 51.690666 51.904 51.904 0 0 1-52.096 51.690667 51.904 51.904 0 0 1-52.117333-51.690667 51.904 51.904 0 0 1 52.117333-51.690666"  /><path fill="#333333" d="M901.376 552.917333c-13.013333 0-23.253333-9.984-23.253333-22.677333s10.24-22.677333 23.253333-22.677333c13.013333 0 23.253333 9.984 23.253333 22.677333s-11.157333 22.677333-23.253333 22.677333m0-76.181333c-29.781333 0-53.973333 23.573333-53.973333 52.586667 0 19.050667 10.24 36.266667 26.069333 45.354666-26.986667 167.786667-174.016 299.285333-352.661333 299.285334-147.946667 0-273.578667-81.621333-328.469334-208.597334h-33.493333c55.829333 145.109333 196.330667 238.506667 361.962667 238.506667 193.536 0 352.64-139.648 382.421333-319.210667 28.842667-0.917333 52.117333-25.386667 52.117333-53.525333 0-29.930667-24.192-54.4-53.973333-54.4M140.224 552.917333c-13.013333 0-23.253333-9.984-23.253333-22.677333s10.24-22.677333 23.253333-22.677333c13.034667 0 23.253333 9.984 23.253333 22.677333s-10.218667 22.677333-23.253333 22.677333m53.973333-22.677333a52.48 52.48 0 0 0-27.904-46.250667c19.541333-174.122667 170.282667-304.725333 354.517334-304.725333A355.2 355.2 0 0 1 854.826667 411.434667h32.576C835.306667 248.192 691.093333 149.333333 519.872 149.333333 320.746667 149.333333 157.909333 292.629333 135.573333 480.362667 107.669333 482.176 85.333333 503.936 85.333333 532.053333c0 29.013333 24.192 52.608 53.973334 52.608 30.72-0.917333 54.890667-25.386667 54.890666-54.421333"  /><path fill="#333333" d="M456.597333 460.394667H424.96v30.848h-35.349333V460.373333H357.973333v-34.453333h31.637334v-30.826667h35.349333v30.826667h31.637333v34.453333z m255.893334-85.248a239.701333 239.701333 0 0 0-200.064-107.008c-133.056 0-240.064 107.008-240.064 237.610666s107.008 237.610667 240.064 237.610667c79.104 0 149.824-38.08 193.557333-97.045333l-133.994667-132.394667 140.501334-138.773333z"  /></svg>