<?xml version="1.0" standalone="no"?><!DOCTYPE svg PUBLIC "-//W3C//DTD SVG 1.1//EN" "http://www.w3.org/Graphics/SVG/1.1/DTD/svg11.dtd"><svg class="icon" width="200px" height="158.88px" viewBox="0 0 1289 1024" version="1.1" xmlns="http://www.w3.org/2000/svg"><path fill="#333333" d="M437.460246 181.591571c-68.970911 22.104018-110.359539 97.244058-119.079272 164.67147-46.307389-49.793336-123.659899-86.878656-192.655135-64.768556-95.098486 30.477103-147.532433 132.40639-117.05533 227.504876 62.000233 193.459117 273.414532 181.632926 467.709254 330.272202C525.420203 535.04301 724.969389 485.96 664.946878 298.677309 634.470991 203.578824 532.558732 151.114469 437.460246 181.591571L437.460246 181.591571zM437.460246 181.591571M795.528802 775.14157c-18.956206-29.609873-59.36692-39.674846-92.089332-35.370322 17.597586-27.927715 25.366164-68.839549 6.403877-98.455504-26.138522-40.82426-80.491808-52.736809-121.317284-26.595855C520.554959 677.351388 501.093985 775.872572 485.713733 875.285313c116.152828 1.724729 202.802817 72.649035 283.202186 21.169892C809.742611 870.315466 821.66854 815.964613 795.528802 775.14157L795.528802 775.14157zM795.528802 775.14157" /></svg>