<?xml version="1.0" standalone="no"?><!DOCTYPE svg PUBLIC "-//W3C//DTD SVG 1.1//EN" "http://www.w3.org/Graphics/SVG/1.1/DTD/svg11.dtd"><svg class="icon" width="200px" height="200.00px" viewBox="0 0 1024 1024" version="1.1" xmlns="http://www.w3.org/2000/svg"><path fill="#333333" d="M938.666667 85.333333l-192 0-106.666667 0L384 85.333333l-64 0L85.333333 85.333333C38.4 85.333333 0 123.733333 0 170.666667l0 469.333333c0 46.933333 38.4 85.333333 85.333333 85.333333l384 0 0 128L256 853.333333c-23.466667 0-42.666667 19.2-42.666667 42.666667 0 23.466667 19.2 42.666667 42.666667 42.666667l512 0c23.466667 0 42.666667-19.2 42.666667-42.666667 0-23.466667-19.2-42.666667-42.666667-42.666667L554.666667 853.333333l0-128 384 0c46.933333 0 85.333333-38.4 85.333333-85.333333L1024 170.666667C1024 123.733333 985.6 85.333333 938.666667 85.333333zM938.666667 618.666667c0 12.8-8.533333 21.333333-21.333333 21.333333L106.666667 640c-12.8 0-21.333333-8.533333-21.333333-21.333333L85.333333 192c0-12.8 8.533333-21.333333 21.333333-21.333333l213.333333 0 64 0 256 0 106.666667 0 170.666667 0c12.8 0 21.333333 8.533333 21.333333 21.333333L938.666667 618.666667zM448 362.666667l-85.333333 0 0-85.333333c0-12.8-8.533333-21.333333-21.333333-21.333333l-42.666667 0c-12.8 0-21.333333 8.533333-21.333333 21.333333l0 85.333333L192 362.666667c-12.8 0-21.333333 8.533333-21.333333 21.333333l0 42.666667c0 12.8 8.533333 21.333333 21.333333 21.333333l85.333333 0 0 85.333333c0 12.8 8.533333 21.333333 21.333333 21.333333l42.666667 0c12.8 0 21.333333-8.533333 21.333333-21.333333l0-85.333333 85.333333 0c12.8 0 21.333333-8.533333 21.333333-21.333333l0-42.666667C469.333333 371.2 460.8 362.666667 448 362.666667zM629.333333 426.666667c-29.866667 0-53.333333 23.466667-53.333333 53.333333 0 29.866667 23.466667 53.333333 53.333333 53.333333s53.333333-23.466667 53.333333-53.333333C682.666667 450.133333 659.2 426.666667 629.333333 426.666667zM778.666667 277.333333c-29.866667 0-53.333333 23.466667-53.333333 53.333333 0 29.866667 23.466667 53.333333 53.333333 53.333333s53.333333-23.466667 53.333333-53.333333C832 300.8 808.533333 277.333333 778.666667 277.333333z" /></svg>