<?xml version="1.0" standalone="no"?><!DOCTYPE svg PUBLIC "-//W3C//DTD SVG 1.1//EN" "http://www.w3.org/Graphics/SVG/1.1/DTD/svg11.dtd"><svg class="icon" width="200px" height="200.00px" viewBox="0 0 1024 1024" version="1.1" xmlns="http://www.w3.org/2000/svg"><path fill="#333333" d="M873.861376 149.794362C712.010234-12.056779 469.232897-41.870509 277.568026 56.088175l-166.108638-17.036239-80.922446-8.514994 8.514994 80.922446 17.036239 166.108638c-97.958684 191.664871-68.144954 434.442208 93.706187 596.29335 200.179866 200.184866 523.880898 200.184866 724.067014 0C1074.046241 673.67526 1074.046241 349.974228 873.861376 149.794362L873.861376 149.794362zM814.232666 814.232666c-166.108638 166.107388-438.700955 166.107388-604.809594 0-106.479929-106.479929-140.556156-251.293581-114.999923-387.58849l38.334974 29.81498c-4.262497 17.036239-4.262497 34.072477-4.262497 55.366213 0 153.334897 89.44369 285.371058 217.221104 344.999768l97.963684-97.963684c55.366213 12.777491 114.999923 12.777491 166.108638-12.778741l-72.407451-55.366213 0 0L132.758123 371.274213l-25.556233-234.258593L618.309047 648.124027l0 0 59.62996 59.62871c4.257497-4.262497 8.514994-8.519994 17.034989-12.778741 4.258747-4.257497 8.516244-8.519994 12.778741-17.034989L648.124027 618.309047 256.27429 226.45931l-119.25867-119.25742 238.51609 25.556233 12.777491 17.036239 0 0L605.531556 430.902923l85.184943 110.736176 0 0 55.366213 72.407451c21.298736-51.107466 25.556233-110.737426 12.778741-166.107388l97.963684-97.964934c-59.62871-132.034911-191.664871-221.478601-344.999768-221.478601-21.293736 0-38.329974 0-59.62871 4.262497l-25.552483-38.334974c136.294908-29.81498 281.108561 8.519994 387.58849 114.999923C980.340054 375.53171 980.340054 648.124027 814.232666 814.232666L814.232666 814.232666zM814.232666 814.232666M873.861376 388.309202l-68.149954 68.149954c17.041239 93.701187-12.777491 191.664871-80.922446 264.072323-72.407451 72.402451-170.371136 97.958684-264.072323 80.922446l-68.148704 68.149954c132.036161 46.849969 285.371058 12.777491 391.849737-93.706187C890.897614 669.417763 920.711344 524.60411 873.861376 388.309202L873.861376 388.309202zM873.861376 388.309202" /></svg>