<?xml version="1.0" standalone="no"?><!DOCTYPE svg PUBLIC "-//W3C//DTD SVG 1.1//EN" "http://www.w3.org/Graphics/SVG/1.1/DTD/svg11.dtd"><svg class="icon" width="200px" height="149.82px" viewBox="0 0 1367 1024" version="1.1" xmlns="http://www.w3.org/2000/svg"><path fill="#333333" d="M971.677457 305.234807 1089.427456 505.498965 1234.291801 455.297707 824.71084 136.710417 788.075349 146.574336 971.052872 305.615667 971.677457 305.234807 971.677457 305.234807ZM694.783283 385.644749 310.903729 87.082394 217.171786 241.176508 679.303795 610.001237 694.783283 385.644749 694.783283 385.644749ZM669.039993 651.203038 263.794968 327.803767 126.29619 364.823893 554.115868 690.692983 554.412928 690.923383 669.039993 651.203038 669.039993 651.203038ZM910.445015 303.161139 560.639762 0 338.684548 59.760435 721.539632 357.534515 910.445015 303.161139 910.445015 303.161139ZM732.883128 394.436608 716.302998 634.822861 1052.235933 518.398225 943.664319 333.769728 732.883128 394.436608 732.883128 394.436608ZM0 575.338496 515.637081 971.203311 521.662066 714.54918 105.715266 399.145779 0 575.338496 0 575.338496ZM949.020918 794.176512 963.681594 589.94019 812.712284 642.262699 949.020918 794.176512 949.020918 794.176512ZM125.749066 368.463326 127.85168 364.831539 125.694453 368.436019 125.749066 368.463326 125.749066 368.463326ZM1260.772031 486.978423 1002.615487 576.454383 986.644705 808.102161 1366.746276 689.302938 1260.772031 486.978423 1260.772031 486.978423ZM939.061794 840.904431 773.148085 655.986483 559.881878 729.893478 554.36913 964.873626 942.000026 843.737907 940.042472 840.018944 939.061794 840.904431 939.061794 840.904431Z" /></svg>